<?xml version="1.0" encoding="utf-8"?>
<!-- Generator: Adobe Illustrator 27.3.1, SVG Export Plug-In . SVG Version: 6.00 Build 0)  -->
<svg version="1.1" id="Ebene_1" xmlns="http://www.w3.org/2000/svg" xmlns:xlink="http://www.w3.org/1999/xlink" x="0px" y="0px"
	 viewBox="0 0 16 16" style="enable-background:new 0 0 16 16;" xml:space="preserve">
<style type="text/css">
	.st0{fill:#FFFFFF;}
</style>
<path class="st0" d="M3,14.5c-0.8,0-1.5-0.7-1.5-1.5V3c0-0.8,0.7-1.5,1.5-1.5h8c0.3,0,0.5,0.2,0.5,0.5S11.3,2.5,11,2.5H3
	C2.7,2.5,2.5,2.7,2.5,3v10c0,0.3,0.2,0.5,0.5,0.5h10c0.3,0,0.5-0.2,0.5-0.5V8c0-0.3,0.2-0.5,0.5-0.5s0.5,0.2,0.5,0.5v5
	c0,0.8-0.7,1.5-1.5,1.5H3z"/>
<path class="st0" d="M8.4,10.4l7-7c0.2-0.2,0.2-0.5,0-0.7c-0.2-0.2-0.5-0.2-0.7,0l0,0L8,9.3L5.4,6.6c-0.2-0.2-0.5-0.2-0.7,0
	s-0.2,0.5,0,0.7l3,3C7.8,10.5,8.2,10.5,8.4,10.4C8.4,10.4,8.4,10.4,8.4,10.4z"/>
</svg>
