<?xml version="1.0" encoding="utf-8"?>
<!-- Generator: Adobe Illustrator 27.3.1, SVG Export Plug-In . SVG Version: 6.00 Build 0)  -->
<svg version="1.1" id="Ebene_1" xmlns="http://www.w3.org/2000/svg" xmlns:xlink="http://www.w3.org/1999/xlink" x="0px" y="0px"
	 viewBox="0 0 16 16" style="enable-background:new 0 0 16 16;" xml:space="preserve">
<style type="text/css">
	.st0{fill:#FFFFFF;}
	.st1{fill-rule:evenodd;clip-rule:evenodd;fill:#FFFFFF;}
</style>
<path class="st0" d="M15.5,1.9c0.2,0.2,0.2,0.5,0,0.7l-1,1l-2-2l1-1c0.2-0.2,0.5-0.2,0.7,0L15.5,1.9L15.5,1.9z M13.8,4.4l-2-2
	L4.9,9.2C4.9,9.3,4.8,9.3,4.8,9.4L4,11.8c0,0.1,0,0.3,0.2,0.3c0.1,0,0.1,0,0.2,0l2.4-0.8c0.1,0,0.1-0.1,0.2-0.1L13.8,4.4L13.8,4.4z"
	/>
<path class="st1" d="M1,13.5C1,14.3,1.7,15,2.5,15h11c0.8,0,1.5-0.7,1.5-1.5v-6C15,7.2,14.8,7,14.5,7S14,7.2,14,7.5v6
	c0,0.3-0.2,0.5-0.5,0.5h-11C2.2,14,2,13.8,2,13.5v-11C2,2.2,2.2,2,2.5,2H9c0.3,0,0.5-0.2,0.5-0.5S9.3,1,9,1H2.5C1.7,1,1,1.7,1,2.5
	V13.5z"/>
</svg>
